{"title":"Mission Impossible Rogue Nation 2015 720p BluRay H264 AAC-RARBG","uid":12665191,"size":1723617850,"categoryP":"video","categoryS":"hd___movies","magnet":"?xt=urn:btih:0f57c5cd59e8b57bc79eef2ad43cd74a4c88dfa1&amp;dn=Mission+Impossible+Rogue+Nation+2015+720p+BluRay+H264+AAC-RARBG&amp;tr=udp%3A%2F%2Ftracker.leechers-paradise.org%3A6969&amp;tr=udp%3A%2F%2Fzer0day.ch%3A1337&amp;tr=udp%3A%2F%2Fopen.demonii.com%3A1337&amp;tr=udp%3A%2F%2Ftracker.coppersurfer.tk%3A6969&amp;tr=udp%3A%2F%2Fexodus.desync.com%3A6969","seeders":1,"leechers":0,"uploader":"TheRival","files":7,"time":1446359373,"description":"Screens: \nhttp://extraimago.com/image/0Vk \nhttp://extraimago.com/image/0Vo \nhttp://extraimago.com/image/0Vt\r\n\r\nVideo\r\nID                                       : 1\r\nFormat                                   : AVC\r\nFormat/Info                              : Advanced Video Codec\r\nFormat profile                           :   \r\nFormat settings, CABAC                   : Yes\r\nFormat settings, ReFrames                : 4 frames\r\nCodec ID                                 : avc1\r\nCodec ID/Info                            : Advanced Video Coding\r\nDuration                                 : 2h 11mn\r\nBit rate                                 : 1 500 Kbps\r\nWidth                                    : 1 280 pixels\r\nHeight                                   : 536 pixels\r\nDisplay aspect ratio                     : 2.40:1\r\nFrame rate mode                          : Constant\r\nFrame rate                               : 23.976 fps\r\nColor space                              : YUV\r\nChroma subsampling                       : 4:2:0\r\nBit depth                                : 8 bits\r\nScan type                                : Progressive\r\nBits/(Pixel*Frame)                       : 0.091\r\nStream size                              : 1.38 GiB (87%)\r\nWriting library                          : x264 core 148 r2597M e86f3a1\r\nEncoding settings                        : cabac=1 / ref=4 / deblock=1:-1:-1 / analyse=0x3:0x113 / me=umh / subme=9 / psy=1 / psy_rd=1.00:0.15 / mixed_ref=1 / me_range=24 / chroma_me=1 / trellis=2 / 8x8dct=1 / cqm=0 / deadzone=21,11 / fast_pskip=1 / chroma_qp_offset=-3 / threads=32 / lookahead_threads=4 / sliced_threads=0 / nr=0 / decimate=1 / interlaced=0 / bluray_compat=0 / constrained_intra=0 / bframes=3 / b_pyramid=2 / b_adapt=1 / b_bias=0 / direct=1 / weightb=1 / open_gop=0 / weightp=2 / keyint=250 / keyint_min=25 / scenecut=40 / intra_refresh=0 / rc_lookahead=50 / rc=2pass / mbtree=1 / bitrate=1500 / ratetol=1.0 / qcomp=0.60 / qpmin=0 / qpmax=69 / qpstep=4 / cplxblur=20.0 / qblur=0.5 / vbv_maxrate=31250 / vbv_bufsize=31250 / nal_hrd=none / filler=0 / ip_ratio=1.40 / aq=3:1.00\r\nEncoded date                             : UTC 1904-01-01 00:00:00\r\nTagged date                              : UTC 1904-01-01 00:00:00\r\n\r\nAudio\r\nID                                       : 2\r\nFormat                                   : AAC\r\nFormat/Info                              : Advanced Audio Codec\r\nFormat profile                           : LC\r\nCodec ID                                 : 40\r\nDuration                                 : 2h 11mn\r\nDuration_LastFrame                       : 32ms\r\nBit rate mode                            : Constant\r\nBit rate                                 : 224 Kbps\r\nChannel(s)                               : 2 channels\r\nChannel(s)_Original                      : 6 channels\r\nChannel positions                        : Front: L C R, Side: L R, LFE\r\nSampling rate                            : 48.0 KHz\r\nCompression mode                         : Lossy\r\nStream size                              : 211 MiB (13%)\r\nLanguage                                 : English\r\nEncoded date                             : UTC 1904-01-01 00:00:00\r\nTagged date                              : UTC 1904-01-01 00:00:00\r\n\r\nMenu #1\r\nID                                       : 3\r\nCodec ID                                 : text\r\nDuration                                 : 2h 11mn\r\nLanguage                                 : English\r\nEncoded date                             : UTC 1904-01-01 00:00:00\r\nTagged date                              : UTC 1904-01-01 00:00:00\r\nBit rate mode                            : CBR\r\n00:00:00.000                             : 00:00:00.000\r\n00:09:53.135                             : 00:09:53.092\r\n00:20:45.746                             : 00:20:45.703\r\n00:25:32.115                             : 00:25:32.072\r\n00:32:00.712                             : 00:32:00.669\r\n00:40:03.486                             : 00:40:03.443\r\n00:49:35.599                             : 00:49:35.556\r\n01:01:01.200                             : 01:01:01.157\r\n01:09:51.730                             : 01:09:51.687\r\n01:20:20.901                             : 01:20:20.858\r\n01:29:29.365                             : 01:29:29.322\r\n01:38:32.867                             : 01:38:32.824\r\n01:48:19.453                             : 01:48:19.410\r\n01:57:13.987                             : 01:57:13.944\r\n02:03:02.752                             : 02:03:02.709\r\n\r\nMenu #2\r\n00:00:00.043                             : 00:00:00.000\r\n00:09:53.135                             : 00:09:53.092\r\n00:20:45.746                             : 00:20:45.703\r\n00:25:32.115                             : 00:25:32.072\r\n00:32:00.712                             : 00:32:00.669\r\n00:40:03.486                             : 00:40:03.443\r\n00:49:35.599                             : 00:49:35.556\r\n01:01:01.200                             : 01:01:01.157\r\n01:09:51.730                             : 01:09:51.687\r\n01:20:20.901                             : 01:20:20.858\r\n01:29:29.365                             : 01:29:29.322\r\n01:38:32.867                             : 01:38:32.824\r\n01:48:19.453                             : 01:48:19.410\r\n01:57:13.987                             : 01:57:13.944\r\n02:03:02.752                             : 02:03:02.709","torrent":{"xt":"urn:btih:0f57c5cd59e8b57bc79eef2ad43cd74a4c88dfa1","amp;dn":"Mission+Impossible+Rogue+Nation+2015+720p+BluRay+H264+AAC-RARBG","amp;tr":["udp%3A%2F%2Ftracker.leechers-paradise.org%3A6969","udp%3A%2F%2Fzer0day.ch%3A1337","udp%3A%2F%2Fopen.demonii.com%3A1337","udp%3A%2F%2Ftracker.coppersurfer.tk%3A6969","udp%3A%2F%2Fexodus.desync.com%3A6969"],"infoHash":"0f57c5cd59e8b57bc79eef2ad43cd74a4c88dfa1","infoHashBuffer":{"type":"Buffer","data":[15,87,197,205,89,232,181,123,199,158,239,42,212,60,215,74,76,136,223,161]},"announce":[],"urlList":[]}}